<svg width="268" height="457" version="1.1" xmlns="http://www.w3.org/2000/svg">
    <g fill-rule="nonzero" stroke="none" stroke-width="1" fill="none">
        <path d="M178.08 134.92c24.708 0 44.74-20.05 44.74-44.785 0-24.734-20.032-44.785-44.74-44.785-24.71 0-44.74 20.05-44.74 44.785 0 24.735 20.03 44.786 44.74 44.786v-.001zm0 44.786c-49.42 0-89.482-40.102-89.482-89.57 0-49.47 40.062-89.572 89.48-89.572 49.42 0 89.482 40.103 89.482 89.57 0 49.47-40.062 89.572-89.48 89.572z" fill="#AAE7ED"/>
        <path fill="#FFE697" d="M0 179.426h89.48v89.57H0z"/>
        <path fill="#FFE697" d="M89.158 179.706h89.48v89.57h-89.48z"/>
        <path fill="#FFCF59" d="M85.42 366.623h89.482v89.57h-89.48z"/>
        <path d="M88.598 183.972v-1.51a4.077 4.077 0 0 1 1.943-2.756h4.13a4.068 4.068 0 0 1 2.014 3.512 4.074 4.074 0 0 1-4.078 4.07 4.076 4.076 0 0 1-4.008-3.316h-.001zm34.567-4.266h4.13a4.07 4.07 0 0 1-2.066 7.582 4.069 4.069 0 1 1-2.065-7.582h.001zm32.623 0h4.13a4.071 4.071 0 0 1-2.064 7.582 4.069 4.069 0 1 1-2.065-7.582h-.001zm22.29 18.654v2.287a4.077 4.077 0 0 1-3.914 2.928 4.075 4.075 0 0 1-4.078-4.07 4.075 4.075 0 0 1 4.078-4.073 4.079 4.079 0 0 1 3.915 2.928h-.001zM88.6 216.544v-1.51a4.078 4.078 0 0 1 4.008-3.316 4.075 4.075 0 0 1 4.078 4.07 4.075 4.075 0 0 1-4.078 4.073 4.077 4.077 0 0 1-4.008-3.316v-.001zm89.48 14.387v2.29a4.078 4.078 0 0 1-3.914 2.926 4.075 4.075 0 0 1-4.078-4.07 4.075 4.075 0 0 1 4.078-4.073 4.079 4.079 0 0 1 3.915 2.928l-.001-.001zM88.6 249.116v-1.51a4.078 4.078 0 0 1 4.008-3.316 4.074 4.074 0 0 1 4.078 4.07 4.074 4.074 0 0 1-4.078 4.072 4.079 4.079 0 0 1-4.008-3.317v.001zm89.48 14.387v2.288a4.077 4.077 0 0 1-3.914 2.928 4.075 4.075 0 0 1-4.078-4.072 4.074 4.074 0 0 1 4.078-4.07 4.078 4.078 0 0 1 3.915 2.926h-.001zm-69.16-59.927a4.075 4.075 0 0 1-4.078-4.07 4.075 4.075 0 0 1 4.078-4.073 4.075 4.075 0 0 1 4.078 4.072 4.074 4.074 0 0 1-4.078 4.07v.001zm32.623 0a4.075 4.075 0 0 1-4.077-4.07 4.075 4.075 0 0 1 4.078-4.073 4.076 4.076 0 0 1 4.08 4.072 4.075 4.075 0 0 1-4.08 4.07l-.001.001zm-16.31 16.286a4.073 4.073 0 0 1-4.078-4.07 4.074 4.074 0 0 1 4.077-4.072 4.074 4.074 0 0 1 4.077 4.07 4.075 4.075 0 0 1-4.078 4.073l.002-.001zm32.623 0a4.074 4.074 0 0 1-4.078-4.07 4.074 4.074 0 0 1 4.078-4.072 4.075 4.075 0 0 1 4.078 4.07 4.074 4.074 0 0 1-4.077 4.073l-.001-.001zm-48.935 16.286a4.075 4.075 0 0 1-4.078-4.07 4.075 4.075 0 0 1 4.078-4.073 4.075 4.075 0 0 1 4.078 4.072 4.074 4.074 0 0 1-4.078 4.07v.001zm32.623 0a4.075 4.075 0 0 1-4.077-4.07 4.075 4.075 0 0 1 4.078-4.073 4.076 4.076 0 0 1 4.08 4.072 4.075 4.075 0 0 1-4.08 4.07l-.001.001zm-16.31 16.286a4.074 4.074 0 0 1-4.078-4.072 4.073 4.073 0 0 1 4.077-4.07 4.073 4.073 0 0 1 4.077 4.07 4.074 4.074 0 0 1-4.078 4.072h.002zm32.623 0a4.075 4.075 0 0 1-4.078-4.072 4.074 4.074 0 0 1 4.078-4.07 4.074 4.074 0 0 1 4.078 4.07 4.074 4.074 0 0 1-4.077 4.072h-.001zm-48.935 16.286a4.075 4.075 0 0 1-4.078-4.072 4.074 4.074 0 0 1 4.078-4.07 4.074 4.074 0 0 1 4.078 4.07 4.074 4.074 0 0 1-4.078 4.072zm32.623 0a4.076 4.076 0 0 1-4.077-4.072 4.074 4.074 0 0 1 4.078-4.07 4.075 4.075 0 0 1 4.08 4.07 4.076 4.076 0 0 1-4.08 4.072h-.001z" fill="#FFCF59"/>
        <path d="M178.61 269.14h44.606c-.005.28-.007.56-.007.84 0 24.424 19.717 44.225 44.04 44.225h.28v44.506h-7.12c-45.885-3.623-81.8-41.978-81.8-89.01v-.56l.001-.001z" fill="#FF5A6E"/>
        <path fill="#7689F4" d="M267.48 377v79.252H178"/>
    </g>
</svg>
