<svg width="274" height="457" viewBox="0 0 274 457" version="1.1" xmlns="http://www.w3.org/2000/svg">
    <title>
        Group 5
    </title>
    <g stroke="none" stroke-width="1" fill="none" fill-rule="evenodd">
        <path d="M109.01 149.945c27.7 0 50.153 22.465 50.153 50.176 0 27.713-22.454 50.178-50.152 50.178S58.86 227.833 58.86 200.12c0-27.71 22.454-50.175 50.153-50.175zm0-50.176c-55.397 0-100.305 44.928-100.305 100.35 0 55.425 44.908 100.354 100.306 100.354 55.398 0 100.306-44.93 100.306-100.353 0-55.422-44.908-100.35-100.305-100.35z" id="shape" fill="#FFE697" fill-rule="nonzero"/>
        <path id="shape" fill="#FFF" d="M.23 101.51h100.307V1.16H.23z"/>
        <path d="M0 97.045v1.69c.247 1.317 1.06 2.434 2.178 3.09h4.63c1.35-.793 2.256-2.258 2.256-3.935 0-2.52-2.047-4.56-4.57-4.56-2.236 0-4.097 1.6-4.494 3.715zm38.748 4.78h4.63c1.35-.793 2.256-2.258 2.256-3.935 0-2.52-2.047-4.56-4.57-4.56-2.526 0-4.573 2.04-4.573 4.56 0 1.677.908 3.142 2.258 3.935zm36.57 0h4.63c1.35-.793 2.256-2.258 2.256-3.935 0-2.52-2.047-4.56-4.572-4.56-2.524 0-4.57 2.04-4.57 4.56 0 1.677.905 3.142 2.256 3.935zm24.988-20.9v-2.562c-.555-1.895-2.31-3.28-4.39-3.28-2.523 0-4.57 2.042-4.57 4.562 0 2.52 2.047 4.56 4.57 4.56 2.08 0 3.835-1.384 4.39-3.28zM0 60.554v1.69c.397 2.116 2.258 3.717 4.493 3.717 2.524 0 4.57-2.042 4.57-4.56 0-2.52-2.046-4.563-4.57-4.563-2.235 0-4.096 1.6-4.493 3.716zm100.306-16.12v-2.562c-.555-1.894-2.31-3.28-4.39-3.28-2.523 0-4.57 2.043-4.57 4.563 0 2.52 2.047 4.56 4.57 4.56 2.08 0 3.835-1.383 4.39-3.28zM0 24.062v1.692c.397 2.116 2.258 3.716 4.493 3.716 2.524 0 4.57-2.042 4.57-4.56 0-2.52-2.046-4.563-4.57-4.563-2.235 0-4.096 1.6-4.493 3.716zM100.306 7.943V5.38c-.555-1.896-2.31-3.28-4.39-3.28-2.523 0-4.57 2.042-4.57 4.56 0 2.52 2.047 4.562 4.57 4.562 2.08 0 3.835-1.384 4.39-3.28zm-77.528 67.14c-2.525 0-4.57 2.043-4.57 4.563 0 2.52 2.045 4.56 4.57 4.56 2.524 0 4.57-2.04 4.57-4.56 0-2.52-2.046-4.562-4.57-4.562zm36.57 0c-2.525 0-4.572 2.043-4.572 4.563 0 2.52 2.047 4.56 4.57 4.56 2.526 0 4.573-2.04 4.573-4.56 0-2.52-2.048-4.562-4.573-4.562zM41.062 56.838c-2.525 0-4.572 2.042-4.572 4.562 0 2.518 2.048 4.56 4.573 4.56 2.524 0 4.57-2.042 4.57-4.56 0-2.52-2.046-4.563-4.57-4.563zm36.57 0c-2.525 0-4.572 2.042-4.572 4.562 0 2.518 2.048 4.56 4.572 4.56 2.525 0 4.572-2.042 4.572-4.56 0-2.52-2.047-4.563-4.572-4.563zM22.777 38.59c-2.525 0-4.57 2.043-4.57 4.563 0 2.52 2.045 4.56 4.57 4.56 2.524 0 4.57-2.04 4.57-4.56 0-2.52-2.046-4.562-4.57-4.562zm36.57 0c-2.525 0-4.572 2.043-4.572 4.563 0 2.52 2.047 4.56 4.57 4.56 2.526 0 4.573-2.04 4.573-4.56 0-2.52-2.048-4.562-4.573-4.562zM41.062 20.346c-2.525 0-4.572 2.043-4.572 4.562 0 2.52 2.048 4.56 4.573 4.56 2.524 0 4.57-2.04 4.57-4.56 0-2.52-2.046-4.562-4.57-4.562zm36.57 0c-2.525 0-4.572 2.043-4.572 4.562 0 2.52 2.048 4.56 4.572 4.56 2.525 0 4.572-2.04 4.572-4.56 0-2.52-2.047-4.562-4.572-4.562zM22.777 2.1c-2.525 0-4.57 2.042-4.57 4.56 0 2.52 2.045 4.562 4.57 4.562 2.524 0 4.57-2.042 4.57-4.56 0-2.52-2.046-4.563-4.57-4.563zm36.57 0c-2.525 0-4.572 2.042-4.572 4.56 0 2.52 2.047 4.562 4.57 4.562 2.526 0 4.573-2.042 4.573-4.56 0-2.52-2.048-4.563-4.573-4.563z" id="shape" fill="#71D1DC"/>
        <path fill="#7689F4" d="M267.772 170.945l-100.305-90.23h100.305"/>
        <path fill="#FFB199" opacity=".626" d="M0 457h181.903v-90.994H0"/>
        <path d="M182.598 365.92l.57.002c47.78 0 86.743-36.507 90.424-83.146v-7.237H228.38v.282c0 24.724-20.115 44.766-44.93 44.766-.284 0-.568-.002-.852-.007v45.34z" fill="#AAE7ED"/>
    </g>
</svg>
